<?xml version="1.0" encoding="UTF-8"?>
<svg height="24" version="1.2" viewBox="0.0 0.0 24.0 24.0" width="24" xmlns="http://www.w3.org/2000/svg" xmlns:xe="http://www.w3.org/2001/xml-events" xmlns:xlink="http://www.w3.org/1999/xlink" >
	<g id="iconStyle2" >
		<path d="M24,12 L24,24 L0,24 L0,0 L24,0 L24,12 z" fill="url(#C81C9F0C-5554-47D0-A187-2C93A186FF08)" id="appleGradient" stroke="none" />
		<path d="M15.7325,13.6346 C15.948,13.8434,16.3789,14.2611,16.8464,14.6313 C17.3138,15.0015,17.8177,15.3242,18.0696,15.4856 L18.3215,15.647 L18.4126,16.0121 C18.5038,16.3772,18.686,17.1074,19.0637,17.906 C19.4414,18.7045,20.0145,19.5714,20.301,20.0048 L20.5876,20.4383 L20.0403,19.8851 L17.8511,17.6726 L17.3449,17.161 C17.5569,16.8277,17.5185,16.3809,17.2289,16.0882 C16.8922,15.7479,16.3433,15.745,16.003,16.0817 C15.6626,16.4185,15.6597,16.9674,15.9965,17.3077 C16.286,17.6004,16.7325,17.6435,17.068,17.435 L17.5744,17.9464 L19.7643,20.1583 L20.3118,20.7112 L19.8813,20.4202 C19.4509,20.1293,18.5899,19.5473,17.7953,19.1614 C17.0007,18.7755,16.2724,18.5857,15.9082,18.4909 C15.5441,18.396,15.5441,18.396,15.5441,18.396 L15.3853,18.1424 C15.2265,17.8888,14.909,17.3817,14.5436,16.9104 C14.1782,16.4392,13.765,16.004,13.5584,15.7863 L13.3518,15.5687 L13.5322,15.3901 L14.2538,14.6757 L14.4342,14.4971 C14.4342,14.4971,14.4342,14.4971,14.6147,14.3185 L15.3365,13.6043 C15.517,13.4258,15.517,13.4258,15.517,13.4258 z M4.10602,4.20848 C4.24384,4.50684,4.51949,5.10357,4.93526,5.55423 C5.35103,6.0049,5.90693,6.3095,6.45306,6.50548 C6.99919,6.70145,7.53555,6.78879,7.98344,6.98441 C8.43133,7.18003,8.79075,7.48392,9.09274,7.83092 C9.39473,8.17792,9.63929,8.56802,9.76157,8.76307 L9.88385,8.95812 L9.81887,8.69413 C9.75389,8.43013,9.62394,7.90215,9.32356,7.46255 C9.02319,7.02295,8.5524,6.67173,8.317,6.49613 C8.08161,6.32052,8.08161,6.32052,8.08161,6.32052 C8.08161,6.32052,8.08161,6.32052,8.4931,6.39485 C8.9046,6.46918,9.7276,6.61784,10.576,7.0812 C11.4243,7.54456,12.298,8.32263,12.9183,9.19126 C13.5386,10.0599,13.9053,11.0191,14.0887,11.4987 L14.2721,11.9783 L14.2829,11.8298 C14.2936,11.6814,14.3151,11.3845,14.2552,11.0607 C14.1953,10.7368,14.054,10.386,13.9834,10.2106 L13.9128,10.0352 L14.0554,10.1851 C14.198,10.3351,14.4833,10.6349,14.7045,10.9878 C14.9256,11.3407,15.0827,11.7467,15.1856,12.1005 C15.2885,12.4542,15.3372,12.7556,15.3616,12.9063 L15.3859,13.0571 C15.3859,13.0571,15.3859,13.0571,15.1799,13.2609 L14.3559,14.0762 L14.1499,14.28 L13.8572,13.8156 C13.5646,13.3512,12.9792,12.4224,12.1898,11.6197 C11.4004,10.8171,10.4071,10.1406,9.91038,9.80233 L9.41369,9.46409 L9.80342,9.77211 C10.1931,10.0801,10.9726,10.6962,11.579,11.2861 C12.1853,11.876,12.6186,12.4399,12.9873,12.9651 C13.3559,13.4904,13.6601,13.9771,13.8122,14.2204 L13.9642,14.4637 L13.8009,14.6254 L13.1475,15.2718 L12.9842,15.4334 L12.3715,15.1983 C11.7589,14.9633,10.5335,14.4932,9.55812,13.9003 C8.58273,13.3075,7.85729,12.5918,7.49458,12.234 L7.13186,11.8762 L7.3521,11.9074 C7.57233,11.9386,8.0128,12.0009,8.40215,12.0158 C8.7915,12.0307,9.12973,11.9982,9.29885,11.982 L9.46797,11.9657 L8.94761,11.7969 C8.42725,11.6281,7.38652,11.2905,6.50366,10.5538 C5.6208,9.81699,4.8958,8.68103,4.49954,7.50723 C4.10327,6.33342,4.03573,5.12177,4.00196,4.51595 C3.96819,3.91012,3.96819,3.91012,3.96819,3.91012 C3.96819,3.91012,3.96819,3.91012,4.10602,4.20848 z" fill="white" id="Shape 2" stroke="none" />
	</g>
	<defs>
		<linearGradient id="C81C9F0C-5554-47D0-A187-2C93A186FF08" x1="0" x2="1" y1="5.55112e-17" y2="1" >
			<stop offset="0.0989775" stop-color="#4093F8" stop-opacity="1" />
			<stop offset="0.352826" stop-color="#A072F8" stop-opacity="1" />
			<stop offset="0.60275" stop-color="#DF506F" stop-opacity="1" />
			<stop offset="0.889802" stop-color="#DE792E" stop-opacity="1" />
		</linearGradient>
	</defs>
</svg>
