<?xml version="1.0" encoding="UTF-8"?>
<svg height="24" version="1.2" viewBox="0.0 0.0 24.000000000000007 24.0" width="24" xmlns="http://www.w3.org/2000/svg" xmlns:xe="http://www.w3.org/2001/xml-events" xmlns:xlink="http://www.w3.org/1999/xlink" >
	<g id="iconStyle1Round" >
		<path d="M24,12 L24,15.7708 C24,18.1404,24,19.3251,23.5967,20.6005 C23.0899,21.993,21.993,23.0899,20.6005,23.5967 C19.3251,24,18.1404,24,15.7708,24 L8.2292,24 C5.85962,24,4.67486,24,3.39949,23.5967 C2.00701,23.0899,0.910094,21.993,0.403267,20.6005 C7.10543e-15,19.3251,7.10543e-15,18.1404,7.10543e-15,15.7708 L7.10543e-15,8.2292 C7.10543e-15,5.85962,7.10543e-15,4.67486,0.403267,3.39949 C0.910094,2.00701,2.00701,0.910094,3.39949,0.403267 C4.67486,1.77636e-15,5.85962,1.77636e-15,8.2292,1.77636e-15 L15.7708,1.77636e-15 C18.1404,1.77636e-15,19.3251,1.77636e-15,20.6005,0.403267 C21.993,0.910094,23.0899,2.00701,23.5967,3.39949 C24,4.67486,24,5.85962,24,8.2292 L24,12 z" fill="url(#6481B61A-C9C3-4006-A186-9828FFDAC358)" id="appleGradient" stroke="none" />
		<path d="M1.8261,12.8959 L2.19131,13.2824 L2.67392,13.7863 C3.15653,14.2901,4.12174,15.2978,5.37737,16.1901 C6.63301,17.0824,8.17907,17.8593,9.89882,18.3163 C11.6186,18.7733,13.512,18.9103,14.4588,18.9788 L15.4055,19.0473 C15.4055,19.0473,15.4055,19.0473,15.5934,19.0598 L16.3449,19.1098 C16.5327,19.1223,16.5327,19.1223,16.5327,19.1223 L16.8603,19.2334 C17.1878,19.3445,17.8429,19.5667,18.5333,19.9247 C19.2238,20.2827,19.9497,20.7764,20.3127,21.0233 C20.6757,21.2701,20.6757,21.2701,20.6757,21.2701 C20.6757,21.2701,20.6757,21.2701,20.7236,21.224 L20.9153,21.0396 L20.9632,20.9935 C20.9632,20.9935,20.9632,20.9935,20.7482,20.6556 C20.5331,20.3177,20.103,19.6419,19.7322,18.8861 C19.3614,18.1304,19.05,17.2948,18.8943,16.877 L18.7386,16.4592 L18.75,16.3295 L18.7955,15.8105 L18.8069,15.6807 C18.8069,15.6807,18.8069,15.6807,18.7262,14.8533 C18.6455,14.0259,18.4841,12.3711,18.0991,10.9099 C17.7141,9.44869,17.1054,8.18108,16.305,6.97836 C15.5047,5.77564,14.5126,4.63781,14.0166,4.06889 L13.5206,3.49997 C13.5206,3.49997,13.5206,3.49997,12.8087,2.91664 L9.96095,0.583328 L9.24902,0 L8.87914,7.40149e-17 C8.50926,1.4803e-16,7.76951,2.96059e-16,6.67606,0.0343458 C5.58262,0.0686915,4.13549,0.137383,3.00224,0.624285 C1.86899,1.11119,1.04962,2.0163,0.60199,3.1342 C0.154363,4.2521,0.0784784,5.58279,0.0401038,6.92308 C0.00172914,8.26337,0.000864572,9.61326,0.000432286,10.2882 C0,10.9632,0,10.9632,0,10.9632 L0.365219,11.3497 L1.8261,12.8959 z" fill="url(#353CFE6D-A817-4F4C-80DF-64F40E900FE2)" id="CV 5" stroke="none" />
		<path d="M16.1069,17.7864 C16.451,18.1344,16.9855,18.1796,17.3788,17.9199 L20.6873,21.2663 L20.2849,21.024 C19.8824,20.7817,19.0775,20.2972,18.3271,19.9168 C17.5766,19.5365,16.8807,19.2604,16.5327,19.1223 L16.1848,18.9842 L12.133,14.8861 L14.659,12.3329 C14.659,12.3329,18.7386,16.4592,18.7386,16.4592 L18.8727,16.8088 C19.0068,17.1583,19.2751,17.8573,19.6468,18.612 C20.0186,19.3667,20.494,20.1771,20.7317,20.5823 L20.9693,20.9875 L17.6608,17.6411 C17.9249,17.2507,17.8858,16.7157,17.5418,16.3678 C17.1501,15.9716,16.5113,15.9679,16.1151,16.3597 L16.0454,16.4359 C15.7199,16.8303,15.7397,17.415,16.1069,17.7864 z M15.7188,12.5574 L15.1012,11.9327 L15.2,11.5002 C15.2987,11.0678,15.4962,10.2028,15.4891,9.18194 C15.4819,8.16107,15.2702,6.98428,14.908,6.0113 C14.5458,5.03832,14.0332,4.26914,13.7769,3.88456 L13.5206,3.49997 L14.1429,3.92516 C14.7651,4.35034,16.0096,5.20072,17.0117,6.53931 C18.0138,7.8779,18.7736,9.70471,19.0324,11.3097 C19.2912,12.9146,19.049,14.2976,18.9279,14.9892 C18.8069,15.6807,18.8069,15.6807,18.8069,15.6807 C18.8069,15.6807,18.8069,15.6807,18.1893,15.056 L15.7188,12.5574 z M12.308,15.9144 L11.6885,15.2879 L11.2107,15.4119 C10.7329,15.536,9.77723,15.7841,8.65246,15.8037 C7.52768,15.8233,6.23377,15.6144,5.13528,15.1696 C4.03679,14.7248,3.13373,14.0442,2.68219,13.7039 C2.23066,13.3635,2.23066,13.3635,2.23066,13.3635 C2.23066,13.3635,2.23066,13.3635,2.49223,13.804 C2.7538,14.2445,3.27693,15.1254,4.39501,16.195 C5.51309,17.2645,7.22611,18.5227,9.16034,19.0295 C11.0946,19.5363,13.25,19.2918,14.3278,19.1696 L15.4055,19.0473 C15.4055,19.0473,15.4055,19.0473,14.786,18.4208 L12.308,15.9144 z M11.1878,13.9029 L11.704,14.425 L12.127,14.0068 L13.819,12.3339 C14.242,11.9157,14.242,11.9157,14.242,11.9157 C14.242,11.9157,14.242,11.9157,13.493,11.3107 C12.744,10.7056,11.2461,9.4956,10.0362,8.3884 C8.82637,7.2812,7.90459,6.27686,7.4437,5.77468 L6.98281,5.27251 L7.34859,5.8181 C7.71437,6.36369,8.44593,7.45487,9.18334,8.43268 C9.92076,9.4105,10.664,10.275,11.0357,10.7072 L11.4073,11.1394 L10.7421,10.7056 C10.0768,10.2717,8.74633,9.40399,7.58461,8.54586 C6.4229,7.68773,5.42995,6.83919,4.93347,6.41492 L4.437,5.99065 L5.13202,6.87433 C5.82705,7.75801,7.2171,9.52537,8.42826,10.9311 C9.63943,12.3368,10.6717,13.3809,11.1878,13.9029 z" fill="white" id="white" stroke="none" />
	</g>
	<defs>
		<linearGradient id="353CFE6D-A817-4F4C-80DF-64F40E900FE2" x1="0.315166" x2="1.02164" y1="0.306387" y2="0.977237" >
			<stop offset="0" stop-color="black" stop-opacity="0" />
			<stop offset="0.462986" stop-color="black" stop-opacity="0.247059" />
			<stop offset="0.742844" stop-color="black" stop-opacity="0" />
		</linearGradient>
		<linearGradient id="6481B61A-C9C3-4006-A186-9828FFDAC358" x1="0" x2="1" y1="5.55112e-17" y2="1" >
			<stop offset="0.0989775" stop-color="#4093F8" stop-opacity="1" />
			<stop offset="0.352826" stop-color="#A072F8" stop-opacity="1" />
			<stop offset="0.60275" stop-color="#DF506F" stop-opacity="1" />
			<stop offset="0.889802" stop-color="#DE792E" stop-opacity="1" />
		</linearGradient>
	</defs>
</svg>
