<svg width="24" height="24" viewBox="0 0 24 24" fill="none" xmlns="http://www.w3.org/2000/svg">
<path d="M24 12V24H0V0H24V12Z" fill="url(#paint0_linear_26_3)"/>
<path d="M1.8261 12.8959L2.19131 13.2824L2.67392 13.7863C3.15653 14.2901 4.12174 15.2978 5.37737 16.1901C6.63301 17.0824 8.17907 17.8593 9.89882 18.3163C11.6186 18.7733 13.512 18.9103 14.4588 18.9788L15.4055 19.0473C15.4055 19.0473 15.4055 19.0473 15.5934 19.0598L16.3449 19.1098C16.5327 19.1223 16.5327 19.1223 16.5327 19.1223L16.8603 19.2334C17.1878 19.3445 17.8429 19.5667 18.5333 19.9247C19.2238 20.2827 19.9497 20.7764 20.3127 21.0233C20.6757 21.2701 20.6757 21.2701 20.6757 21.2701C20.6757 21.2701 20.6757 21.2701 20.7236 21.224L20.9153 21.0396L20.9632 20.9935C20.9632 20.9935 20.9632 20.9935 20.7482 20.6556C20.5331 20.3177 20.103 19.6419 19.7322 18.8861C19.3614 18.1304 19.05 17.2948 18.8943 16.877L18.7386 16.4592L18.75 16.3295L18.7955 15.8105L18.8069 15.6807C18.8069 15.6807 18.8069 15.6807 18.7262 14.8533C18.6455 14.0259 18.4841 12.3711 18.0991 10.9099C17.7141 9.44869 17.1054 8.18108 16.305 6.97836C15.5047 5.77564 14.5126 4.63781 14.0166 4.06889L13.5206 3.49997C13.5206 3.49997 13.5206 3.49997 12.8087 2.91664L9.96095 0.583328L9.24902 0L7.70752 0L1.5415 0L0 0L0 1.82719L0 9.13597C0 10.9632 0 10.9632 0 10.9632L0.365219 11.3497L1.8261 12.8959Z" fill="url(#paint1_linear_26_3)"/>
<path d="M16.1069 17.7864C16.451 18.1344 16.9855 18.1796 17.3788 17.9199L20.6873 21.2663L20.2849 21.024C19.8824 20.7817 19.0775 20.2972 18.3271 19.9168C17.5766 19.5365 16.8807 19.2604 16.5327 19.1223L16.1848 18.9842L12.133 14.8861L14.659 12.3329L18.7386 16.4592L18.8727 16.8088C19.0068 17.1583 19.2751 17.8573 19.6468 18.612C20.0186 19.3667 20.494 20.1771 20.7317 20.5823L20.9693 20.9875L17.6608 17.6411C17.9249 17.2507 17.8858 16.7157 17.5418 16.3678C17.1501 15.9716 16.5113 15.9679 16.1151 16.3597L16.0454 16.4359C15.7199 16.8303 15.7397 17.415 16.1069 17.7864ZM15.7188 12.5574L15.1012 11.9327L15.2 11.5002C15.2987 11.0678 15.4962 10.2028 15.4891 9.18194C15.4819 8.16107 15.2702 6.98428 14.908 6.0113C14.5458 5.03832 14.0332 4.26914 13.7769 3.88456L13.5206 3.49997L14.1429 3.92516C14.7651 4.35034 16.0096 5.20072 17.0117 6.53931C18.0138 7.8779 18.7736 9.70471 19.0324 11.3097C19.2912 12.9146 19.049 14.2976 18.9279 14.9892C18.8069 15.6807 18.8069 15.6807 18.8069 15.6807C18.8069 15.6807 18.8069 15.6807 18.1893 15.056L15.7188 12.5574ZM12.308 15.9144L11.6885 15.2879L11.2107 15.4119C10.7329 15.536 9.77722 15.7841 8.65245 15.8037C7.52767 15.8233 6.23376 15.6144 5.13527 15.1696C4.03678 14.7248 3.13372 14.0442 2.68218 13.7039C2.23065 13.3635 2.23065 13.3635 2.23065 13.3635C2.23065 13.3635 2.23065 13.3635 2.49222 13.804C2.75379 14.2445 3.27692 15.1254 4.395 16.195C5.51308 17.2645 7.2261 18.5227 9.16033 19.0295C11.0946 19.5363 13.25 19.2918 14.3278 19.1696L15.4055 19.0473C15.4055 19.0473 15.4055 19.0473 14.786 18.4208L12.308 15.9144ZM11.1878 13.9029L11.704 14.425L12.127 14.0068L13.819 12.3339C14.242 11.9157 14.242 11.9157 14.242 11.9157C14.242 11.9157 14.242 11.9157 13.493 11.3107C12.744 10.7056 11.2461 9.4956 10.0362 8.3884C8.82636 7.2812 7.90458 6.27686 7.44369 5.77468L6.9828 5.27251L7.34858 5.8181C7.71436 6.36369 8.44592 7.45487 9.18333 8.43268C9.92075 9.4105 10.664 10.275 11.0357 10.7072L11.4073 11.1394L10.7421 10.7056C10.0768 10.2717 8.74632 9.40399 7.5846 8.54586C6.42289 7.68773 5.42994 6.83919 4.93346 6.41492L4.43699 5.99065L5.13201 6.87433C5.82704 7.75801 7.21709 9.52537 8.42825 10.9311C9.63942 12.3368 10.6717 13.3809 11.1878 13.9029Z" fill="white"/>
<defs>
<linearGradient id="paint0_linear_26_3" x1="0" y1="0" x2="24" y2="24" gradientUnits="userSpaceOnUse">
<stop offset="0.0989775" stop-color="#4093F8"/>
<stop offset="0.352826" stop-color="#A072F8"/>
<stop offset="0.60275" stop-color="#DF506F"/>
<stop offset="0.889802" stop-color="#DE792E"/>
</linearGradient>
<linearGradient id="paint1_linear_26_3" x1="6.60689" y1="6.51688" x2="21.6208" y2="20.568" gradientUnits="userSpaceOnUse">
<stop stop-opacity="0"/>
<stop offset="0.462986" stop-opacity="0.247059"/>
<stop offset="0.742844" stop-opacity="0"/>
</linearGradient>
</defs>
</svg>
